<mxfile host="app.diagrams.net" agent="Mozilla/5.0 (Windows NT 10.0; Win64; x64) AppleWebKit/537.36 (KHTML, like Gecko) Chrome/131.0.0.0 Safari/537.36 Edg/131.0.0.0" version="26.0.6">
  <diagram id="8HlAcZmeTaXduZMI5PPF" name="Page-1">
    <mxGraphModel dx="1472" dy="1788" grid="1" gridSize="10" guides="1" tooltips="1" connect="1" arrows="1" fold="1" page="0" pageScale="1" pageWidth="827" pageHeight="1169" math="0" shadow="0">
      <root>
        <mxCell id="0" />
        <mxCell id="1" parent="0" />
        <mxCell id="BptDzBWecrOaISR_vbOy-3" value="Customer" style="shape=umlActor;verticalLabelPosition=bottom;verticalAlign=top;html=1;outlineConnect=0;" vertex="1" parent="1">
          <mxGeometry x="-480" y="-640" width="40" height="80" as="geometry" />
        </mxCell>
        <mxCell id="BptDzBWecrOaISR_vbOy-4" value="View total bill" style="ellipse;whiteSpace=wrap;html=1;" vertex="1" parent="1">
          <mxGeometry x="-400" y="-635" width="140" height="70" as="geometry" />
        </mxCell>
        <mxCell id="BptDzBWecrOaISR_vbOy-5" value="Order Pizza" style="ellipse;whiteSpace=wrap;html=1;" vertex="1" parent="1">
          <mxGeometry x="-400" y="-550" width="140" height="70" as="geometry" />
        </mxCell>
        <mxCell id="BptDzBWecrOaISR_vbOy-6" value="View order tracking" style="ellipse;whiteSpace=wrap;html=1;" vertex="1" parent="1">
          <mxGeometry x="-400" y="-470" width="140" height="70" as="geometry" />
        </mxCell>
        <mxCell id="BptDzBWecrOaISR_vbOy-7" value="&lt;div&gt;View menu&lt;/div&gt;" style="ellipse;whiteSpace=wrap;html=1;" vertex="1" parent="1">
          <mxGeometry x="-400" y="-720" width="140" height="70" as="geometry" />
        </mxCell>
        <mxCell id="BptDzBWecrOaISR_vbOy-8" value="Log in" style="ellipse;whiteSpace=wrap;html=1;" vertex="1" parent="1">
          <mxGeometry x="-400" y="-800" width="140" height="70" as="geometry" />
        </mxCell>
      </root>
    </mxGraphModel>
  </diagram>
</mxfile>
